<svg
  aria-hidden="true"
  fill="currentColor"
  viewBox="0 0 512 512"
  xmlns="http://www.w3.org/2000/svg"
>
  <path
    d="M170.667 122.667C161.92 122.667 154.667 115.413 154.667 106.667V42.6667C154.667 33.92 161.92 26.6667 170.667 26.6667C179.413 26.6667 186.667 33.92 186.667 42.6667V106.667C186.667 115.413 179.413 122.667 170.667 122.667Z"
  />
  <path
    d="M341.333 122.667C332.587 122.667 325.333 115.413 325.333 106.667V42.6667C325.333 33.92 332.587 26.6667 341.333 26.6667C350.08 26.6667 357.333 33.92 357.333 42.6667V106.667C357.333 115.413 350.08 122.667 341.333 122.667Z"
  />
  <path
    d="M181.333 309.335C178.56 309.335 175.787 308.695 173.227 307.629C170.453 306.562 168.32 305.069 166.187 303.149C162.347 299.095 160 293.762 160 288.002C160 285.229 160.64 282.455 161.707 279.895C162.773 277.335 164.267 274.989 166.187 272.855C168.32 270.935 170.453 269.442 173.227 268.375C180.907 265.175 190.507 266.882 196.48 272.855C200.32 276.909 202.667 282.455 202.667 288.002C202.667 289.282 202.453 290.775 202.24 292.269C202.027 293.549 201.6 294.829 200.96 296.109C200.533 297.389 199.893 298.669 199.04 299.949C198.4 301.015 197.333 302.082 196.48 303.149C192.427 306.989 186.88 309.335 181.333 309.335Z"
  />
  <path
    d="M256 309.331C253.227 309.331 250.453 308.691 247.893 307.625C245.12 306.558 242.987 305.065 240.853 303.145C237.013 299.091 234.667 293.758 234.667 287.998C234.667 285.225 235.307 282.451 236.373 279.891C237.44 277.331 238.933 274.985 240.853 272.851C242.987 270.931 245.12 269.438 247.893 268.371C255.573 264.958 265.173 266.878 271.147 272.851C274.987 276.905 277.333 282.451 277.333 287.998C277.333 289.278 277.12 290.771 276.907 292.265C276.693 293.545 276.267 294.825 275.627 296.105C275.2 297.385 274.56 298.665 273.707 299.945C273.067 301.011 272 302.078 271.147 303.145C267.093 306.985 261.547 309.331 256 309.331Z"
  />
  <path
    d="M330.667 309.331C327.893 309.331 325.12 308.691 322.56 307.625C319.787 306.558 317.653 305.065 315.52 303.145C314.667 302.078 313.813 301.011 312.96 299.945C312.107 298.665 311.467 297.385 311.04 296.105C310.4 294.825 309.973 293.545 309.76 292.265C309.547 290.771 309.333 289.278 309.333 287.998C309.333 282.451 311.68 276.905 315.52 272.851C317.653 270.931 319.787 269.438 322.56 268.371C330.453 264.958 339.84 266.878 345.813 272.851C349.653 276.905 352 282.451 352 287.998C352 289.278 351.787 290.771 351.573 292.265C351.36 293.545 350.933 294.825 350.293 296.105C349.867 297.385 349.227 298.665 348.373 299.945C347.733 301.011 346.667 302.078 345.813 303.145C341.76 306.985 336.213 309.331 330.667 309.331Z"
  />
  <path
    d="M181.333 383.998C178.56 383.998 175.787 383.36 173.227 382.293C170.667 381.227 168.32 379.731 166.187 377.811C162.347 373.758 160 368.211 160 362.665C160 359.891 160.64 357.118 161.707 354.558C162.773 351.785 164.267 349.44 166.187 347.52C174.08 339.627 188.587 339.627 196.48 347.52C200.32 351.573 202.667 357.118 202.667 362.665C202.667 368.211 200.32 373.758 196.48 377.811C192.427 381.651 186.88 383.998 181.333 383.998Z"
  />
  <path
    d="M256 383.998C250.453 383.998 244.907 381.651 240.853 377.811C237.013 373.758 234.667 368.211 234.667 362.665C234.667 359.891 235.307 357.118 236.373 354.558C237.44 351.785 238.933 349.44 240.853 347.52C248.747 339.627 263.253 339.627 271.147 347.52C273.067 349.44 274.56 351.785 275.627 354.558C276.693 357.118 277.333 359.891 277.333 362.665C277.333 368.211 274.987 373.758 271.147 377.811C267.093 381.651 261.547 383.998 256 383.998Z"
  />
  <path
    d="M330.667 383.998C325.12 383.998 319.573 381.651 315.52 377.811C313.6 375.891 312.107 373.545 311.04 370.771C309.973 368.211 309.333 365.438 309.333 362.665C309.333 359.891 309.973 357.118 311.04 354.558C312.107 351.785 313.6 349.438 315.52 347.518C320.427 342.611 327.893 340.264 334.72 341.758C336.213 341.971 337.493 342.398 338.773 343.038C340.053 343.465 341.333 344.105 342.613 344.958C343.68 345.598 344.747 346.665 345.813 347.518C349.653 351.571 352 357.118 352 362.665C352 368.211 349.653 373.758 345.813 377.811C341.76 381.651 336.213 383.998 330.667 383.998Z"
  />
  <path
    d="M437.333 209.917H74.6667C65.92 209.917 58.6667 202.663 58.6667 193.917C58.6667 185.17 65.92 177.917 74.6667 177.917H437.333C446.08 177.917 453.333 185.17 453.333 193.917C453.333 202.663 446.08 209.917 437.333 209.917Z"
  />
  <path
    d="M341.333 485.333H170.667C92.8 485.333 48 440.533 48 362.667V181.333C48 103.467 92.8 58.6667 170.667 58.6667H341.333C419.2 58.6667 464 103.467 464 181.333V362.667C464 440.533 419.2 485.333 341.333 485.333ZM170.667 90.6667C109.653 90.6667 80 120.32 80 181.333V362.667C80 423.68 109.653 453.333 170.667 453.333H341.333C402.347 453.333 432 423.68 432 362.667V181.333C432 120.32 402.347 90.6667 341.333 90.6667H170.667Z"
  />
</svg>
