<svg
  aria-hidden="true"
  fill="currentColor"
  viewBox="0 0 512 512"
  xmlns="http://www.w3.org/2000/svg"
>
  <path
    d="M256 304C268.73 304 280.939 298.943 289.941 289.941C298.943 280.939 304 268.73 304 256C304 243.27 298.943 231.061 289.941 222.059C280.939 213.057 268.73 208 256 208C243.27 208 231.061 213.057 222.059 222.059C213.057 231.061 208 243.27 208 256C208 268.73 213.057 280.939 222.059 289.941C231.061 298.943 243.27 304 256 304Z"
  />
  <path
    d="M256 0C323.895 0 389.01 26.9714 437.019 74.9807C485.029 122.99 512 188.105 512 256C512 323.895 485.029 389.01 437.019 437.019C389.01 485.029 323.895 512 256 512C188.105 512 122.99 485.029 74.9807 437.019C26.9714 389.01 0 323.895 0 256C0 188.105 26.9714 122.99 74.9807 74.9807C122.99 26.9714 188.105 0 256 0ZM48 256C48 311.165 69.9142 364.071 108.922 403.078C147.929 442.086 200.835 464 256 464C311.165 464 364.071 442.086 403.078 403.078C442.086 364.071 464 311.165 464 256C464 200.835 442.086 147.929 403.078 108.922C364.071 69.9142 311.165 48 256 48C200.835 48 147.929 69.9142 108.922 108.922C69.9142 147.929 48 200.835 48 256Z"
  />
</svg>
