<svg
  aria-hidden="true"
  fill="currentColor"
  viewBox="0 0 512 512"
  xmlns="http://www.w3.org/2000/svg"
>
  <path
    d="M360.96 216.96C365.199 212.41 367.507 206.393 367.398 200.175C367.288 193.958 364.769 188.025 360.372 183.628C355.975 179.231 350.042 176.712 343.825 176.602C337.607 176.493 331.59 178.801 327.04 183.04L232 278.08L184.96 231.04C180.41 226.801 174.393 224.493 168.175 224.602C161.958 224.712 156.025 227.231 151.628 231.628C147.231 236.025 144.712 241.958 144.602 248.175C144.493 254.393 146.801 260.41 151.04 264.96L215.04 328.96C219.54 333.454 225.64 335.979 232 335.979C238.36 335.979 244.46 333.454 248.96 328.96L360.96 216.96Z"
  />
  <path
    d="M512 256C512 323.895 485.029 389.01 437.019 437.019C389.01 485.029 323.895 512 256 512C188.105 512 122.99 485.029 74.9807 437.019C26.9714 389.01 0 323.895 0 256C0 188.105 26.9714 122.99 74.9807 74.9807C122.99 26.9714 188.105 0 256 0C323.895 0 389.01 26.9714 437.019 74.9807C485.029 122.99 512 188.105 512 256ZM464 256C464 200.835 442.086 147.929 403.078 108.922C364.071 69.9142 311.165 48 256 48C200.835 48 147.929 69.9142 108.922 108.922C69.9142 147.929 48 200.835 48 256C48 311.165 69.9142 364.071 108.922 403.078C147.929 442.086 200.835 464 256 464C311.165 464 364.071 442.086 403.078 403.078C442.086 364.071 464 311.165 464 256Z"
  />
</svg>
