<svg
  width="512"
  height="512"
  viewBox="0 0 512 512"
  fill="currentColor"
  xmlns="http://www.w3.org/2000/svg"
>
  <path
    d="M323.54 149.75L305.46 162.88L312.36 184.14C313.486 187.608 313.485 191.343 312.359 194.811C311.232 198.278 309.037 201.3 306.087 203.444C303.138 205.587 299.586 206.742 295.94 206.743C292.294 206.744 288.741 205.592 285.79 203.45L267.71 190.31L249.63 203.45C246.679 205.592 243.126 206.744 239.48 206.743C235.834 206.742 232.282 205.587 229.333 203.444C226.383 201.3 224.188 198.278 223.061 194.811C221.935 191.343 221.934 187.608 223.06 184.14L230 162.88L211.92 149.75C208.979 147.608 206.79 144.593 205.664 141.133C204.539 137.674 204.534 133.947 205.652 130.485C206.769 127.023 208.951 124.002 211.887 121.854C214.823 119.705 218.362 118.538 222 118.52H244.39L251.3 97.26C252.429 93.7949 254.626 90.7759 257.575 88.6351C260.525 86.4942 264.076 85.3413 267.72 85.3413C271.364 85.3413 274.915 86.4942 277.865 88.6351C280.814 90.7759 283.011 93.7949 284.14 97.26L291 118.52H313.4C317.044 118.524 320.593 119.68 323.54 121.823C326.487 123.966 328.681 126.986 329.807 130.452C330.933 133.917 330.935 137.65 329.811 141.117C328.687 144.583 326.495 147.605 323.55 149.75H323.54ZM283.29 139.85C281.037 139.851 278.841 139.138 277.018 137.814C275.194 136.49 273.837 134.623 273.14 132.48L267.71 115.77L262.28 132.48C261.585 134.622 260.229 136.489 258.408 137.813C256.586 139.137 254.392 139.85 252.14 139.85H234.57L248.79 150.18C250.614 151.504 251.971 153.371 252.668 155.515C253.366 157.658 253.366 159.967 252.67 162.11L247.24 178.83L261.46 168.5C263.282 167.175 265.477 166.461 267.73 166.461C269.983 166.461 272.178 167.175 274 168.5L288.22 178.83L282.79 162.11C282.094 159.967 282.094 157.658 282.792 155.515C283.489 153.371 284.846 151.504 286.67 150.18L300.89 139.85H283.29ZM245.29 250.67C243.181 250.678 241.122 251.31 239.373 252.488C237.624 253.665 236.262 255.334 235.461 257.284C234.659 259.235 234.454 261.379 234.87 263.446C235.286 265.513 236.305 267.411 237.799 268.899C239.293 270.387 241.194 271.399 243.263 271.808C245.332 272.216 247.475 272.003 249.422 271.194C251.37 270.385 253.034 269.018 254.205 267.264C255.375 265.51 256 263.449 256 261.34C256 258.512 254.877 255.799 252.878 253.799C250.88 251.798 248.168 250.673 245.34 250.67H245.29ZM160 197.34C160.002 195.229 159.378 193.165 158.206 191.408C157.034 189.652 155.368 188.283 153.418 187.474C151.468 186.665 149.322 186.453 147.251 186.865C145.18 187.276 143.278 188.292 141.785 189.785C140.292 191.278 139.276 193.18 138.865 195.251C138.453 197.322 138.665 199.468 139.474 201.418C140.283 203.368 141.652 205.034 143.408 206.206C145.164 207.378 147.229 208.002 149.34 208C152.166 207.997 154.876 206.873 156.875 204.875C158.873 202.876 159.997 200.166 160 197.34ZM213.34 48C213.34 45.8897 212.714 43.8267 211.542 42.0721C210.369 40.3174 208.703 38.9498 206.753 38.1422C204.804 37.3346 202.658 37.1233 200.588 37.535C198.519 37.9467 196.617 38.9629 195.125 40.4552C193.633 41.9474 192.617 43.8486 192.205 45.9184C191.793 47.9882 192.005 50.1335 192.812 52.0832C193.62 54.0329 194.987 55.6993 196.742 56.8718C198.497 58.0442 200.56 58.67 202.67 58.67C205.5 58.67 208.214 57.5458 210.215 55.5448C212.216 53.5438 213.34 50.8299 213.34 48ZM0 367.2C0.0264824 380.15 5.18875 392.561 14.3542 401.709C23.5197 410.858 35.94 415.997 48.89 416H194.83C202.417 416.014 209.928 414.48 216.901 411.49C223.874 408.5 230.164 404.118 235.384 398.612C240.605 393.106 244.646 386.592 247.261 379.47C249.876 372.347 251.009 364.766 250.591 357.19C250.173 349.614 248.213 342.204 244.831 335.412C241.448 328.62 236.715 322.591 230.921 317.692C225.126 312.794 218.393 309.13 211.133 306.925C203.873 304.721 196.24 304.021 188.7 304.87C182.022 289.125 170.484 275.928 155.772 267.206C141.059 258.485 123.944 254.697 106.926 256.394C89.9073 258.092 73.8777 265.187 61.1785 276.643C48.4793 288.099 39.776 303.316 36.34 320.07C25.96 322.867 16.7841 328.992 10.2198 337.505C3.6555 346.018 0.0653437 356.45 0 367.2ZM194.83 437.34H182C217.178 461.576 258.871 474.59 301.59 474.67C304.52 474.67 307.44 474.61 310.38 474.48C418.79 469.92 507.25 381.46 511.81 273.09C513.419 233.018 503.614 193.314 483.534 158.598C463.455 123.883 433.927 95.5857 398.39 77C393.258 74.3766 387.416 73.4808 381.734 74.4461C376.052 75.4114 370.833 78.1861 366.856 82.3571C362.878 86.5281 360.354 91.8722 359.659 97.5938C358.964 103.315 360.136 109.108 363 114.11C378.903 141.325 386.086 172.759 383.58 204.18C378.58 269.78 331.47 324.61 269.58 341.36C272.52 352.74 272.809 364.643 270.424 376.152C268.039 387.662 263.044 398.47 255.824 407.744C248.603 417.019 239.35 424.512 228.777 429.646C218.204 434.781 206.594 437.42 194.84 437.36L194.83 437.34Z"
  />
</svg>
