<svg
  aria-hidden="true"
  width="512"
  height="512"
  viewBox="0 0 512 512"
  fill="currentColor"
  xmlns="http://www.w3.org/2000/svg"
>
  <path
    fill-rule="evenodd"
    clip-rule="evenodd"
    d="M485.69 279.17H428.76C428.65 279.17 428.56 279.17 428.45 279.17C430.198 265.166 430.127 250.996 428.24 237.01C428.41 237.01 428.59 236.94 428.76 236.94H485.69C496.9 236.9 506 246.8 506 258C506 269.2 496.89 279.14 485.68 279.14L485.69 279.17ZM394 149.64C393.223 150.37 392.39 151.039 391.51 151.64C383.074 141.283 373.466 131.937 362.88 123.79C363.582 122.745 364.378 121.768 365.26 120.87L405.5 80.63C409.311 76.8188 414.48 74.6777 419.87 74.6777C425.26 74.6777 430.429 76.8188 434.24 80.63C438.051 84.4412 440.192 89.6102 440.192 95C440.192 100.39 438.051 105.559 434.24 109.37L394 149.64ZM256 402C176.31 402 111.48 337.17 111.48 257.48C111.48 177.79 176.33 112.92 256 112.92C335.67 112.92 400.53 177.74 400.53 257.44C400.53 337.14 335.72 402 256 402ZM258.22 88C251.461 88.0273 244.709 88.4513 238 89.27C237.304 87.3446 236.932 85.3171 236.9 83.27V26.32C236.91 15.09 246.81 6 258 6C269.19 6 279.12 15.09 279.12 26.32V83.23C279.085 85.2759 278.716 87.3024 278.03 89.23C271.456 88.4326 264.842 88.0218 258.22 88ZM123.89 153.6C121.711 152.626 119.723 151.272 118.02 149.6L77.78 109.4C73.9688 105.589 71.8278 100.42 71.8278 95.03C71.8278 89.6402 73.9688 84.4712 77.78 80.66C81.5912 76.8488 86.7602 74.7077 92.15 74.7077C97.5398 74.7077 102.709 76.8488 106.52 80.66L146.78 120.9C148.35 122.506 149.638 124.366 150.59 126.4C140.71 134.465 131.755 143.6 123.89 153.64V153.6ZM88.89 237.82C88.0199 244.786 87.5757 251.799 87.56 258.82C87.5621 265.32 87.9394 271.814 88.69 278.27C86.935 278.839 85.1048 279.143 83.26 279.17H26.33C15.1 279.17 6 269.26 6 258C6 246.74 15.1 236.9 26.33 236.9H83.23C85.1466 236.945 87.0452 237.282 88.86 237.9L88.89 237.82ZM120.94 365.19C121.694 364.463 122.503 363.794 123.36 363.19C131.574 373.772 140.991 383.363 151.42 391.77C150.891 392.523 150.31 393.238 149.68 393.91L109.44 434.15C107.559 436.064 105.317 437.586 102.844 438.629C100.371 439.672 97.7164 440.215 95.0327 440.227C92.349 440.239 89.6895 439.72 87.2075 438.699C84.7256 437.677 82.4705 436.175 80.5721 434.278C78.6737 432.381 77.1698 430.127 76.1469 427.646C75.1241 425.164 74.6027 422.505 74.6127 419.822C74.6227 417.138 75.164 414.483 76.2054 412.009C77.2467 409.536 78.7675 407.293 80.68 405.41L120.94 365.17V365.19ZM258.25 429.53C265.227 429.515 272.197 429.075 279.12 428.21C279.12 428.38 279.19 428.56 279.19 428.73V485.64C279.19 496.87 269.28 505.96 258.07 505.96C246.86 505.96 236.94 496.87 236.94 485.64V428.77C236.94 428.58 237 428.39 237 428.2C244.048 429.102 251.145 429.559 258.25 429.57V429.53ZM391.66 365.72L431.38 405.43C435.191 409.241 437.332 414.41 437.332 419.8C437.332 425.19 435.191 430.359 431.38 434.17C427.569 437.981 422.4 440.122 417.01 440.122C411.62 440.122 406.451 437.981 402.64 434.17L362.48 394.1C373.272 385.827 383.056 376.315 391.63 365.76L391.66 365.72Z"
  />
</svg>
